<?xml version="1.0" encoding="UTF-8"?>
<svg width="700pt" height="700pt" version="1.1" viewBox="0 0 700 700" xmlns="http://www.w3.org/2000/svg">
 <g fill-rule="evenodd">
  <path d="m350 64.168c-119.2 0-215.83 96.629-215.83 215.83 0 119.2 96.629 215.83 215.83 215.83 119.2 0 215.83-96.633 215.83-215.83 0-88.477-53.242-164.56-129.5-197.88-8.8555-3.8672-12.902-14.184-9.0312-23.043 3.8711-8.8555 14.188-12.898 23.043-9.0273 88.555 38.688 150.49 127.07 150.49 229.95 0 138.53-112.3 250.83-250.83 250.83s-250.83-112.3-250.83-250.83 112.3-250.83 250.83-250.83c9.6641 0 17.5 7.832 17.5 17.5 0 9.6641-7.8359 17.5-17.5 17.5z"/>
  <path d="m350 147.5c-27.152 0-49.164 22.012-49.164 49.164 0 27.156 22.012 49.168 49.164 49.168 27.156 0 49.168-22.012 49.168-49.168 0-27.152-22.012-49.164-49.168-49.164zm-84.164 49.164c0-46.484 37.68-84.164 84.164-84.164s84.168 37.68 84.168 84.164-37.684 84.168-84.168 84.168-84.164-37.684-84.164-84.168z"/>
  <path d="m350 344.17c-67.461 0-124.26 45.816-140.9 108.06-2.4961 9.3359-12.086 14.883-21.426 12.387-9.3359-2.4961-14.883-12.09-12.387-21.426 20.629-77.168 91.008-134.02 174.71-134.02 83.699 0 154.08 56.852 174.71 134.02 2.4961 9.3359-3.0508 18.93-12.391 21.426-9.3359 2.4961-18.926-3.0508-21.422-12.387-16.641-62.242-73.441-108.06-140.9-108.06z"/>
 </g>
</svg>
